<svg width="1512" height="1233" viewBox="0 0 1512 1233" fill="none" xmlns="http://www.w3.org/2000/svg">
<g id="No Internet">
<g id="circle">
<path id="Stroke 1" d="M47.0671 566.036V578.861" stroke="#F5F5F5" stroke-width="2.921" stroke-linecap="round"/>
<g id="Group 8">
<path id="Stroke 2" d="M18.2569 572.982L28.7387 583.771" stroke="#F5F5F5" stroke-width="2.921" stroke-linecap="round"/>
<path id="Stroke 4" d="M6 601.702H20.8211" stroke="#F5F5F5" stroke-width="2.921" stroke-linecap="round"/>
<path id="Stroke 6" d="M17.0746 630.933L27.5564 620.145" stroke="#F5F5F5" stroke-width="2.921" stroke-linecap="round"/>
</g>
<path id="Stroke 9" d="M47.0671 634.435V621.609" stroke="#F5F5F5" stroke-width="2.921" stroke-linecap="round"/>
<path id="Stroke 10" d="M68.4492 625.885L59.8976 617.335" stroke="#F5F5F5" stroke-width="2.921" stroke-linecap="round"/>
<path id="Stroke 11" d="M85.5555 604.509H72.7282" stroke="#F5F5F5" stroke-width="2.921" stroke-linecap="round"/>
<path id="Stroke 12" d="M76.9951 574.582L68.4435 583.132" stroke="#F5F5F5" stroke-width="2.921" stroke-linecap="round"/>
<path id="Stroke 13" d="M735.469 6V14.5501" stroke="#F5F5F5" stroke-width="2.921" stroke-linecap="round"/>
<path id="Stroke 15" d="M709.831 31.6494H718.382" stroke="#F5F5F5" stroke-width="2.921" stroke-linecap="round"/>
<path id="Stroke 16" d="M735.469 57.3031V48.7529" stroke="#F5F5F5" stroke-width="2.921" stroke-linecap="round"/>
<path id="Stroke 17" d="M756.839 31.6494H748.287" stroke="#F5F5F5" stroke-width="2.921" stroke-linecap="round"/>
<path id="Stroke 18" d="M239.49 365.104V377.929" stroke="#F5F5F5" stroke-width="2.921" stroke-linecap="round"/>
<path id="Stroke 19" d="M201.01 403.582H213.838" stroke="#F5F5F5" stroke-width="2.921" stroke-linecap="round"/>
<path id="Stroke 20" d="M239.49 437.782V424.957" stroke="#F5F5F5" stroke-width="2.921" stroke-linecap="round"/>
<path id="Stroke 21" d="M273.694 403.582H260.867" stroke="#F5F5F5" stroke-width="2.921" stroke-linecap="round"/>
<g id="Group 42">
<path id="Stroke 22" d="M1159.85 831.261C1170.07 831.261 1178.35 839.549 1178.35 849.768C1178.35 859.991 1170.07 868.275 1159.85 868.275C1149.63 868.275 1141.34 859.991 1141.34 849.768" stroke="#F5F5F5" stroke-width="2.921" stroke-linecap="round"/>
<path id="Stroke 24" d="M1244.33 1074.55C1246.61 1090.51 1235.54 1105.3 1219.58 1107.58C1203.62 1109.87 1188.84 1098.79 1186.55 1082.83C1184.26 1066.88 1195.34 1052.09 1211.3 1049.8" stroke="#F5F5F5" stroke-width="2.921" stroke-linecap="round"/>
<path id="Fill 26" fill-rule="evenodd" clip-rule="evenodd" d="M1244.56 663.355C1255.55 659.928 1272.39 646.492 1276.29 632.036C1279.83 644.815 1294.65 659.928 1308.02 661.071C1292.97 666.401 1278.57 682.232 1276.29 694.67C1274.74 681.993 1254.83 665.203 1244.56 663.355Z" fill="#E0E0E0"/>
<path id="Fill 28" fill-rule="evenodd" clip-rule="evenodd" d="M116.643 825.558C122.139 823.844 130.557 817.128 132.506 809.9C134.274 816.286 141.683 823.844 148.369 824.418C140.844 827.079 133.65 834.997 132.506 841.215C131.73 834.877 121.776 826.48 116.643 825.558Z" fill="#E0E0E0"/>
<path id="Fill 30" fill-rule="evenodd" clip-rule="evenodd" d="M218.626 230.86C218.626 238.789 212.201 245.211 204.277 245.211C196.349 245.211 189.927 238.789 189.927 230.86C189.927 222.935 196.349 216.51 204.277 216.51C212.201 216.51 218.626 222.935 218.626 230.86Z" fill="#E0E0E0"/>
<path id="Fill 32" fill-rule="evenodd" clip-rule="evenodd" d="M1066.01 1131.88C1066.01 1145.12 1055.27 1155.86 1042.02 1155.86C1028.77 1155.86 1018.04 1145.12 1018.04 1131.88C1018.04 1118.63 1028.77 1107.89 1042.02 1107.89C1055.27 1107.89 1066.01 1118.63 1066.01 1131.88Z" fill="#E0E0E0"/>
<path id="Fill 34" fill-rule="evenodd" clip-rule="evenodd" d="M1509 204.408C1509 214.918 1500.49 223.435 1489.98 223.435C1479.47 223.435 1470.96 214.918 1470.96 204.408C1470.96 193.899 1479.47 185.382 1489.98 185.382C1500.49 185.382 1509 193.899 1509 204.408Z" fill="#E0E0E0"/>
<path id="Stroke 36" fill-rule="evenodd" clip-rule="evenodd" d="M486.806 1093.01C486.806 1099.64 481.437 1105.01 474.812 1105.01C468.191 1105.01 462.823 1099.64 462.823 1093.01C462.823 1086.39 468.191 1081.02 474.812 1081.02C481.437 1081.02 486.806 1086.39 486.806 1093.01Z" stroke="#F5F5F5" stroke-width="2.921" stroke-linecap="round"/>
<path id="Stroke 38" fill-rule="evenodd" clip-rule="evenodd" d="M479.674 138.666C479.674 146.595 473.249 153.017 465.325 153.017C457.4 153.017 450.975 146.595 450.975 138.666C450.975 130.741 457.4 124.315 465.325 124.315C473.249 124.315 479.674 130.741 479.674 138.666Z" stroke="#F5F5F5" stroke-width="2.921" stroke-linecap="round"/>
<path id="Stroke 40" fill-rule="evenodd" clip-rule="evenodd" d="M845.684 1225.84C836.515 1229.32 826.253 1224.72 822.764 1215.55C819.276 1206.38 823.879 1196.11 833.052 1192.63C842.217 1189.14 852.479 1193.74 855.967 1202.91C859.459 1212.08 854.853 1222.35 845.684 1225.84Z" stroke="#F5F5F5" stroke-width="2.921" stroke-linecap="round"/>
</g>
</g>
<g id="Fill 1" filter="url(#filter0_i_1210_9276)">
<path fill-rule="evenodd" clip-rule="evenodd" d="M599.012 900.227C596.899 904.222 599.796 909.031 604.316 909.031H668.19C672.242 909.031 675.129 912.965 673.914 916.831L640.826 1022.09C638.939 1028.09 646.386 1032.58 650.813 1028.11L814.649 862.638C818.4 858.85 815.716 852.417 810.385 852.417H717.078C713.226 852.417 710.372 848.84 711.227 845.085L763.915 613.624C765.472 606.786 756.039 603.288 752.761 609.487L599.012 900.227Z" fill="url(#paint0_linear_1210_9276)"/>
<path fill-rule="evenodd" clip-rule="evenodd" d="M599.012 900.227C596.899 904.222 599.796 909.031 604.316 909.031H668.19C672.242 909.031 675.129 912.965 673.914 916.831L640.826 1022.09C638.939 1028.09 646.386 1032.58 650.813 1028.11L814.649 862.638C818.4 858.85 815.716 852.417 810.385 852.417H717.078C713.226 852.417 710.372 848.84 711.227 845.085L763.915 613.624C765.472 606.786 756.039 603.288 752.761 609.487L599.012 900.227Z" stroke="#F5F5F5"/>
</g>
<g id="Group 6">
<path id="Fill 2" fill-rule="evenodd" clip-rule="evenodd" d="M1084.93 503.613C1064.71 489.249 1041.11 479.348 1015.52 475.398C1001.53 353.161 897.744 258.229 771.741 258.229C693.22 258.229 623.329 295.114 578.399 352.498C562.634 347.218 545.804 344.337 528.257 344.337C447.692 344.337 381.255 404.718 371.665 482.682C304.993 503.348 256.582 565.495 256.582 638.932C256.582 729.007 329.399 802.055 419.404 802.479C424.039 803.103 428.751 803.466 433.557 803.466H968.529C978.406 805.317 988.54 806.326 998.951 806.326C1089.32 806.326 1162.54 733.098 1162.54 642.762C1162.54 583.963 1131.5 532.435 1084.93 503.613Z" fill="#F5F5F5"/>
<g id="Fill 4" filter="url(#filter1_i_1210_9276)">
<path fill-rule="evenodd" clip-rule="evenodd" d="M568.021 424.872C584.684 419.342 585.516 398.974 567.959 398.974C485.717 398.974 419.071 457.668 419.071 530.057C419.071 538.145 428.941 540.513 433.757 534.015C476.916 475.785 512.861 443.18 568.021 424.872Z" fill="#CCCCCC"/>
<path fill-rule="evenodd" clip-rule="evenodd" d="M568.021 424.872C584.684 419.342 585.516 398.974 567.959 398.974C485.717 398.974 419.071 457.668 419.071 530.057C419.071 538.145 428.941 540.513 433.757 534.015C476.916 475.785 512.861 443.18 568.021 424.872Z" stroke="#F5F5F5"/>
</g>
</g>
</g>
<defs>
<filter id="filter0_i_1210_9276" x="598.308" y="606.267" width="218.089" height="423.656" filterUnits="userSpaceOnUse" color-interpolation-filters="sRGB">
<feFlood flood-opacity="0" result="BackgroundImageFix"/>
<feBlend mode="normal" in="SourceGraphic" in2="BackgroundImageFix" result="shape"/>
<feColorMatrix in="SourceAlpha" type="matrix" values="0 0 0 0 0 0 0 0 0 0 0 0 0 0 0 0 0 0 127 0" result="hardAlpha"/>
<feOffset/>
<feGaussianBlur stdDeviation="3.5"/>
<feComposite in2="hardAlpha" operator="arithmetic" k2="-1" k3="1"/>
<feColorMatrix type="matrix" values="0 0 0 0 1 0 0 0 0 1 0 0 0 0 1 0 0 0 0.48 0"/>
<feBlend mode="normal" in2="shape" result="effect1_innerShadow_1210_9276"/>
</filter>
<filter id="filter1_i_1210_9276" x="419.071" y="398.974" width="161.753" height="144.785" filterUnits="userSpaceOnUse" color-interpolation-filters="sRGB">
<feFlood flood-opacity="0" result="BackgroundImageFix"/>
<feBlend mode="normal" in="SourceGraphic" in2="BackgroundImageFix" result="shape"/>
<feColorMatrix in="SourceAlpha" type="matrix" values="0 0 0 0 0 0 0 0 0 0 0 0 0 0 0 0 0 0 127 0" result="hardAlpha"/>
<feOffset dy="3"/>
<feGaussianBlur stdDeviation="1"/>
<feComposite in2="hardAlpha" operator="arithmetic" k2="-1" k3="1"/>
<feColorMatrix type="matrix" values="0 0 0 0 0.960784 0 0 0 0 0.960784 0 0 0 0 0.960784 0 0 0 0.45 0"/>
<feBlend mode="normal" in2="shape" result="effect1_innerShadow_1210_9276"/>
</filter>
<linearGradient id="paint0_linear_1210_9276" x1="709.563" y1="331.143" x2="336.108" y2="511.779" gradientUnits="userSpaceOnUse">
<stop stop-color="#845CF5"/>
<stop offset="1" stop-color="#F72585"/>
</linearGradient>
</defs>
</svg>
