<?xml version="1.0" encoding="UTF-8"?>
<svg width="1505px" height="1225px" viewBox="0 0 1505 1225" version="1.1" xmlns="http://www.w3.org/2000/svg" xmlns:xlink="http://www.w3.org/1999/xlink">
    <title>Group</title>
    <defs>
        <linearGradient x1="119.600333%" y1="32.7488029%" x2="-13.6524657%" y2="67.2511971%" id="linearGradient-1">
            <stop stop-color="#845CF5" offset="0%"></stop>
            <stop stop-color="#F72585" offset="100%"></stop>
            <stop stop-color="#F72585" offset="100%"></stop>
            <stop stop-color="#F72585" offset="100%"></stop>
        </linearGradient>
    </defs>
    <g id="Page-1" stroke="none" stroke-width="1" fill="none" fill-rule="evenodd">
        <g id="Group" transform="translate(2.000000, 2.000000)">
            <g id="62c8843770269ad88973af5a_No-Internet@3x">
                <g id="circle">
                    <line x1="41.0671" y1="560.036" x2="41.0671" y2="572.861" id="Stroke-1" stroke="#F5F5F5" stroke-width="2.921" stroke-linecap="round"></line>
                    <g id="Group-8" transform="translate(0.000000, 566.982000)" stroke="#F5F5F5" stroke-linecap="round" stroke-width="2.921">
                        <line x1="12.2569" y1="0" x2="22.7387" y2="10.789" id="Stroke-2"></line>
                        <line x1="0" y1="28.72" x2="14.8211" y2="28.72" id="Stroke-4"></line>
                        <line x1="11.0746" y1="57.951" x2="21.5564" y2="47.163" id="Stroke-6"></line>
                    </g>
                    <line x1="41.0671" y1="628.435" x2="41.0671" y2="615.609" id="Stroke-9" stroke="#F5F5F5" stroke-width="2.921" stroke-linecap="round"></line>
                    <line x1="62.4492" y1="619.885" x2="53.8976" y2="611.335" id="Stroke-10" stroke="#F5F5F5" stroke-width="2.921" stroke-linecap="round"></line>
                    <line x1="79.5555" y1="598.509" x2="66.7282" y2="598.509" id="Stroke-11" stroke="#F5F5F5" stroke-width="2.921" stroke-linecap="round"></line>
                    <line x1="70.9951" y1="568.582" x2="62.4435" y2="577.132" id="Stroke-12" stroke="#F5F5F5" stroke-width="2.921" stroke-linecap="round"></line>
                    <line x1="729.469" y1="0" x2="729.469" y2="8.5501" id="Stroke-13" stroke="#F5F5F5" stroke-width="2.921" stroke-linecap="round"></line>
                    <line x1="703.831" y1="25.6494" x2="712.382" y2="25.6494" id="Stroke-15" stroke="#F5F5F5" stroke-width="2.921" stroke-linecap="round"></line>
                    <line x1="729.469" y1="51.3031" x2="729.469" y2="42.7529" id="Stroke-16" stroke="#F5F5F5" stroke-width="2.921" stroke-linecap="round"></line>
                    <line x1="750.839" y1="25.6494" x2="742.287" y2="25.6494" id="Stroke-17" stroke="#F5F5F5" stroke-width="2.921" stroke-linecap="round"></line>
                    <line x1="233.49" y1="359.104" x2="233.49" y2="371.929" id="Stroke-18" stroke="#F5F5F5" stroke-width="2.921" stroke-linecap="round"></line>
                    <line x1="195.01" y1="397.582" x2="207.838" y2="397.582" id="Stroke-19" stroke="#F5F5F5" stroke-width="2.921" stroke-linecap="round"></line>
                    <line x1="233.49" y1="431.782" x2="233.49" y2="418.957" id="Stroke-20" stroke="#F5F5F5" stroke-width="2.921" stroke-linecap="round"></line>
                    <line x1="267.694" y1="397.582" x2="254.867" y2="397.582" id="Stroke-21" stroke="#F5F5F5" stroke-width="2.921" stroke-linecap="round"></line>
                    <g id="Group-42" transform="translate(110.643000, 118.315000)">
                        <path d="M1043.207,706.946 C1053.427,706.946 1061.707,715.234 1061.707,725.453 C1061.707,735.676 1053.427,743.96 1043.207,743.96 C1032.987,743.96 1024.697,735.676 1024.697,725.453" id="Stroke-22" stroke="#F5F5F5" stroke-width="2.921" stroke-linecap="round"></path>
                        <path d="M1127.687,950.235 C1129.967,966.195 1118.897,980.985 1102.937,983.265 C1086.977,985.555 1072.197,974.475 1069.907,958.515 C1067.617,942.565 1078.697,927.775 1094.657,925.485" id="Stroke-24" stroke="#F5F5F5" stroke-width="2.921" stroke-linecap="round"></path>
                        <path d="M1127.917,539.04 C1138.907,535.613 1155.747,522.177 1159.647,507.721 C1163.187,520.5 1178.007,535.613 1191.377,536.756 C1176.327,542.086 1161.927,557.917 1159.647,570.355 C1158.097,557.678 1138.187,540.888 1127.917,539.04 Z" id="Fill-26" fill="#E0E0E0"></path>
                        <path d="M-2.84217094e-14,701.243 C5.496,699.529 13.914,692.813 15.863,685.585 C17.631,691.971 25.04,699.529 31.726,700.103 C24.201,702.764 17.007,710.682 15.863,716.9 C15.087,710.562 5.133,702.165 -2.84217094e-14,701.243 Z" id="Fill-28" fill="#E0E0E0"></path>
                        <path d="M101.983,106.545 C101.983,114.474 95.558,120.896 87.634,120.896 C79.706,120.896 73.284,114.474 73.284,106.545 C73.284,98.62 79.706,92.195 87.634,92.195 C95.558,92.195 101.983,98.62 101.983,106.545 Z" id="Fill-30" fill="#E0E0E0"></path>
                        <path d="M949.367,1007.565 C949.367,1020.805 938.627,1031.545 925.377,1031.545 C912.127,1031.545 901.397,1020.805 901.397,1007.565 C901.397,994.315 912.127,983.575 925.377,983.575 C938.627,983.575 949.367,994.315 949.367,1007.565 Z" id="Fill-32" fill="#E0E0E0"></path>
                        <path d="M1392.357,80.093 C1392.357,90.603 1383.847,99.12 1373.337,99.12 C1362.827,99.12 1354.317,90.603 1354.317,80.093 C1354.317,69.584 1362.827,61.067 1373.337,61.067 C1383.847,61.067 1392.357,69.584 1392.357,80.093 Z" id="Fill-34" fill="#E0E0E0"></path>
                        <path d="M370.163,968.695 C370.163,975.325 364.794,980.695 358.169,980.695 C351.548,980.695 346.18,975.325 346.18,968.695 C346.18,962.075 351.548,956.705 358.169,956.705 C364.794,956.705 370.163,962.075 370.163,968.695 Z" id="Stroke-36" stroke="#F5F5F5" stroke-width="2.921" stroke-linecap="round"></path>
                        <path d="M363.031,14.351 C363.031,22.28 356.606,28.702 348.682,28.702 C340.757,28.702 334.332,22.28 334.332,14.351 C334.332,6.426 340.757,5.68434189e-14 348.682,5.68434189e-14 C356.606,5.68434189e-14 363.031,6.426 363.031,14.351 Z" id="Stroke-38" stroke="#F5F5F5" stroke-width="2.921" stroke-linecap="round"></path>
                        <path d="M729.041,1101.525 C719.872,1105.005 709.61,1100.405 706.121,1091.235 C702.633,1082.065 707.236,1071.795 716.409,1068.315 C725.574,1064.825 735.836,1069.425 739.324,1078.595 C742.816,1087.765 738.21,1098.035 729.041,1101.525 Z" id="Stroke-40" stroke="#F5F5F5" stroke-width="2.921" stroke-linecap="round"></path>
                    </g>
                </g>
                <g id="Group-6" transform="translate(250.582000, 252.229000)">
                    <path d="M828.348,245.384 C808.128,231.02 784.528,221.119 758.938,217.169 C744.948,94.932 641.162,-5.68434189e-14 515.159,-5.68434189e-14 C436.638,-5.68434189e-14 366.747,36.885 321.817,94.269 C306.052,88.989 289.222,86.108 271.675,86.108 C191.11,86.108 124.673,146.489 115.083,224.453 C48.411,245.119 5.68434189e-14,307.266 5.68434189e-14,380.703 C5.68434189e-14,470.778 72.817,543.826 162.822,544.25 C167.457,544.874 172.169,545.237 176.975,545.237 L711.947,545.237 C721.824,547.088 731.958,548.097 742.369,548.097 C832.738,548.097 905.958,474.869 905.958,384.533 C905.958,325.734 874.918,274.206 828.348,245.384 Z" id="Fill-2" fill="#F5F5F5"></path>
                    <g id="Fill-4" transform="translate(162.489000, 140.745000)">
                        <path d="M148.95,25.898 C165.613,20.368 166.445,0 148.888,0 C66.646,0 0,58.694 0,131.083 C0,139.171 9.87,141.539 14.686,135.041 C57.845,76.811 93.79,44.206 148.95,25.898 Z" id="Path" fill="#CCCCCC"></path>
                        <path d="M148.95,25.898 C165.613,20.368 166.445,0 148.888,0 C66.646,0 0,58.694 0,131.083 C0,139.171 9.87,141.539 14.686,135.041 C57.845,76.811 93.79,44.206 148.95,25.898 Z" id="Path" stroke="#F5F5F5"></path>
                    </g>
                </g>
            </g>
            <text id="ERROR" fill="url(#linearGradient-1)" fill-rule="nonzero" font-family="Jellee-Roman, Jellee" font-size="132" font-weight="normal">
                <tspan x="490.85" y="599">ERROR</tspan>
            </text>
        </g>
    </g>
</svg>